<svg version="1.0" xmlns="http://www.w3.org/2000/svg"
 width="186.000000pt" height="271.000000pt" viewBox="0 0 186.000000 271.000000"
 preserveAspectRatio="xMidYMid meet">
<g transform="translate(0.000000,271.000000) scale(0.100000,-0.100000)"
fill="#8CFFDA" stroke="none">
<path d="M936 2582 c-3 -5 -16 -7 -29 -5 -13 3 -40 -5 -62 -17 -27 -15 -36
-17 -32 -7 4 11 0 13 -14 10 -10 -3 -19 -9 -19 -13 0 -5 -10 -6 -22 -2 -14 3
-19 2 -14 -6 4 -7 2 -12 -3 -12 -6 0 -11 4 -11 9 0 14 -68 -13 -97 -40 -15
-13 -21 -16 -14 -6 19 24 2 21 -27 -5 -14 -13 -22 -17 -18 -10 8 14 -10 17
-19 2 -3 -6 -25 -19 -48 -29 -42 -20 -125 -96 -118 -109 2 -4 -7 -13 -20 -19
-13 -7 -23 -18 -21 -23 1 -6 -5 -13 -13 -16 -8 -4 -15 -12 -15 -19 0 -8 -11
-26 -24 -42 -12 -15 -28 -38 -35 -50 -10 -20 -9 -22 6 -17 12 4 9 -2 -9 -17
-14 -13 -32 -35 -38 -48 -11 -22 -10 -23 6 -17 17 5 16 4 -2 -12 -21 -18 -36
-57 -39 -103 -1 -14 -6 -32 -11 -40 -9 -15 -10 -18 -20 -63 -6 -23 -4 -27 7
-21 10 6 9 3 -2 -11 -9 -10 -19 -28 -23 -39 -6 -20 -6 -20 9 -1 8 11 17 17 20
14 3 -3 -3 -16 -13 -29 -21 -27 -36 -72 -21 -63 6 3 7 -6 3 -23 -3 -15 -7 -54
-8 -86 -2 -47 1 -57 13 -52 12 5 11 2 -2 -13 -13 -14 -14 -21 -5 -30 7 -7 8
-12 2 -12 -6 0 -11 -16 -11 -35 0 -19 3 -32 7 -30 9 6 6 -27 -5 -44 -6 -10 -4
-12 5 -6 10 6 11 2 7 -17 -4 -14 -3 -28 0 -32 4 -4 8 -15 8 -24 4 -59 5 -63
18 -56 9 6 9 5 0 -8 -10 -11 -10 -23 -2 -47 6 -17 14 -31 17 -31 4 0 7 -21 8
-47 0 -27 5 -48 12 -51 7 -2 10 -7 7 -12 -6 -9 31 -97 45 -105 5 -3 7 -12 3
-20 -3 -8 0 -15 7 -15 6 0 8 -4 5 -10 -4 -6 1 -7 11 -3 12 4 15 3 10 -5 -4 -7
-2 -12 6 -12 11 0 10 -2 0 -9 -11 -6 -10 -10 4 -15 9 -3 14 -9 11 -13 -3 -3 8
-26 24 -50 21 -30 36 -42 46 -39 10 4 13 2 10 -8 -5 -13 10 -28 97 -100 16
-13 37 -23 47 -21 10 2 18 -1 16 -7 -1 -6 21 -22 48 -36 81 -41 92 -45 106
-37 8 6 10 4 4 -5 -6 -10 0 -12 23 -8 18 3 29 0 25 -5 -4 -6 5 -8 20 -5 15 3
24 2 22 -3 -12 -18 265 -53 298 -37 9 5 17 5 17 0 0 -10 172 -7 240 4 25 4 57
8 72 8 15 1 31 5 35 10 4 4 -19 5 -52 1 -33 -4 -105 -8 -160 -9 -56 -1 -106
-5 -112 -9 -6 -4 -13 -3 -15 2 -1 5 -30 11 -63 12 -33 2 -63 8 -67 13 -4 6
-12 5 -21 -3 -12 -9 -16 -9 -19 0 -2 7 -17 14 -34 16 -76 7 -91 10 -112 22
-12 7 -32 9 -44 5 -15 -4 -18 -3 -13 6 5 9 1 10 -16 5 -13 -4 -21 -4 -17 0 5
5 -29 27 -75 51 -45 23 -97 50 -114 59 -18 10 -30 22 -26 28 4 6 -2 8 -15 5
-14 -4 -19 -2 -16 7 3 7 -13 28 -35 47 -23 19 -41 39 -41 45 0 6 -11 22 -25
37 -13 14 -22 26 -19 26 3 0 0 9 -6 20 -6 11 -16 17 -22 14 -7 -4 -8 -3 -4 4
4 6 -2 30 -14 54 -11 23 -20 48 -20 55 0 8 -5 11 -12 7 -8 -5 -9 -2 -5 9 3 9
2 19 -3 22 -4 3 -11 -1 -13 -7 -4 -9 -6 -10 -6 -1 -1 6 3 14 9 18 5 3 7 13 4
23 -13 39 -28 61 -38 55 -6 -4 -4 2 4 12 9 11 11 20 4 22 -5 2 -9 17 -8 33 1
17 -1 30 -5 30 -3 0 -7 12 -8 28 -5 86 -15 147 -26 154 -9 6 -9 8 1 8 6 0 12
9 12 21 0 13 -4 18 -12 13 -7 -5 -8 -3 -2 7 4 8 9 67 10 131 1 64 4 120 7 125
4 6 14 67 19 118 1 6 9 36 19 68 12 40 14 57 6 57 -9 0 -9 2 -1 8 9 6 24 37
29 62 6 27 100 198 128 232 20 25 33 48 29 52 -4 4 -2 6 4 4 13 -4 104 76 104
91 0 7 4 10 9 6 6 -3 40 9 78 26 93 44 97 45 193 69 158 38 372 49 488 24 22
-4 32 -3 32 5 0 8 -8 10 -20 6 -12 -4 -20 -2 -20 6 0 8 -10 9 -30 5 -19 -3
-29 -2 -25 4 4 6 -8 8 -30 5 -21 -2 -33 0 -30 5 7 11 -51 7 -62 -3 -10 -11
-35 -8 -28 2 3 6 -6 7 -22 2 -16 -5 -38 -4 -51 0 -16 6 -21 5 -16 -2 4 -8 0
-7 -15 0 -16 9 -21 9 -21 -1 0 -10 -2 -10 -9 1 -5 8 -11 9 -15 3z m-456 -156
c0 -2 -8 -10 -17 -17 -16 -13 -17 -12 -4 4 13 16 21 21 21 13z"/>
<path d="M1348 2539 c13 -13 62 -22 62 -11 0 5 -16 12 -35 14 -19 2 -32 1 -27
-3z"/>
<path d="M1430 2513 c8 -2 22 -7 30 -10 27 -11 40 -11 34 -2 -3 5 -9 7 -14 4
-5 -3 -11 -1 -15 5 -3 5 -16 10 -28 9 -14 0 -17 -2 -7 -6z"/>
<path d="M1515 2480 c3 -5 8 -10 11 -10 2 0 4 5 4 10 0 6 -5 10 -11 10 -5 0
-7 -4 -4 -10z"/>
<path d="M625 2410 c-3 -6 1 -7 9 -4 18 7 21 14 7 14 -6 0 -13 -4 -16 -10z"/>
<path d="M93 1803 c0 -9 4 -10 14 -2 7 6 13 12 13 14 0 1 -6 2 -13 2 -8 0 -14
-6 -14 -14z"/>
<path d="M224 1636 c1 -8 5 -18 8 -22 4 -3 5 1 4 10 -1 8 -5 18 -8 22 -4 3 -5
-1 -4 -10z"/>
<path d="M1168 1000 c-20 -12 -21 -69 -2 -77 8 -3 33 -23 56 -44 24 -21 48
-39 53 -39 6 0 16 -9 23 -20 7 -11 21 -20 33 -20 11 0 17 -5 14 -10 -3 -6 4
-14 17 -19 13 -6 19 -10 14 -10 -8 -1 3 -10 62 -56 7 -5 22 -18 33 -27 10 -10
21 -18 24 -18 3 0 22 -16 42 -35 28 -27 40 -32 50 -23 10 8 12 7 8 -4 -4 -10
8 -27 34 -49 23 -18 41 -38 41 -44 0 -13 -54 -55 -69 -55 -6 0 -14 -8 -20 -18
-5 -9 -13 -17 -18 -17 -4 0 -7 -4 -5 -8 1 -5 -2 -6 -8 -2 -6 3 -24 -7 -40 -24
-17 -17 -32 -29 -34 -28 -2 1 -19 -11 -38 -28 -18 -16 -35 -29 -38 -29 -8 2
-84 -52 -104 -75 -10 -11 -22 -18 -27 -15 -4 2 -13 -5 -19 -16 -8 -15 8 -8 55
25 37 25 71 45 76 45 6 0 7 5 4 10 -3 6 1 10 10 10 19 0 74 37 93 62 7 10 23
23 35 30 21 11 21 10 7 -8 -14 -18 -14 -18 5 -2 36 30 180 122 188 120 4 -1
10 5 14 14 7 18 -23 47 -38 38 -5 -3 -6 3 -2 12 5 13 3 16 -10 11 -12 -4 -14
-2 -10 10 5 12 2 15 -9 10 -10 -3 -19 0 -22 9 -4 10 -2 13 7 8 7 -5 7 -1 -2
10 -8 9 -20 15 -28 12 -7 -3 -13 1 -13 8 0 18 -35 48 -45 39 -4 -5 -5 -3 -2 3
4 6 -2 19 -13 29 -11 10 -20 14 -20 9 0 -5 -6 2 -13 15 -6 13 -16 24 -22 25
-5 0 -28 21 -51 45 -27 28 -46 41 -55 36 -8 -5 -10 -4 -5 4 9 14 -32 50 -57
51 -10 0 -15 5 -12 10 8 13 -14 42 -26 34 -5 -3 -8 0 -7 8 2 7 -5 12 -14 12
-10 -1 -16 1 -15 5 1 3 -8 17 -21 31 -17 18 -25 21 -34 12 -17 -17 -33 -15
-18 3 14 17 12 18 -12 5z m73 -69 c22 -22 38 -45 34 -51 -3 -5 -11 -8 -16 -4
-5 3 -7 10 -4 15 4 5 1 9 -6 9 -12 0 -30 20 -50 53 -15 27 -3 20 42 -22z m114
-109 c-6 -7 -54 22 -49 29 3 5 0 9 -5 9 -6 0 -11 5 -11 11 0 6 15 -2 33 -18
19 -15 33 -29 32 -31z"/>
<path d="M1475 510 c-3 -5 -1 -10 4 -10 6 0 11 5 11 10 0 6 -2 10 -4 10 -3 0
-8 -4 -11 -10z"/>
<path d="M1584 336 c1 -8 5 -18 8 -22 4 -3 5 1 4 10 -1 8 -5 18 -8 22 -4 3 -5
-1 -4 -10z"/>
<path d="M1201 159 c-13 -10 -19 -19 -14 -19 13 0 49 27 43 33 -3 3 -16 -3
-29 -14z"/>
</g>
</svg>
